<svg xmlns="http://www.w3.org/2000/svg" xmlns:xlink="http://www.w3.org/1999/xlink" viewBox="0 0 401 267"><defs><style>.cls-1{fill:url(#New_Gradient_Swatch_19);}.cls-2{fill:url(#linear-gradient);}.cls-3{fill:url(#New_Gradient_Swatch_19-2);}.cls-4{fill:url(#New_Gradient_Swatch_19-3);}.cls-5{fill:url(#New_Gradient_Swatch_19-4);}.cls-6{fill:url(#New_Gradient_Swatch_19-5);}.cls-7{fill:url(#New_Gradient_Swatch_19-6);}.cls-8{fill:url(#New_Gradient_Swatch_19-7);}</style><linearGradient id="New_Gradient_Swatch_19" x1="1.04" y1="132.75" x2="401.04" y2="132.75" gradientUnits="userSpaceOnUse"><stop offset="0" stop-color="#cacccd"/><stop offset="1" stop-color="#fff"/></linearGradient><linearGradient id="linear-gradient" x1="25.38" y1="129.94" x2="378.48" y2="129.94" gradientUnits="userSpaceOnUse"><stop offset="0" stop-color="#73b234"/><stop offset="1" stop-color="#00682f"/></linearGradient><linearGradient id="New_Gradient_Swatch_19-2" x1="111.52" y1="114.95" x2="174.63" y2="114.95" xlink:href="#New_Gradient_Swatch_19"/><linearGradient id="New_Gradient_Swatch_19-3" x1="83" y1="177.37" x2="169.52" y2="177.37" xlink:href="#New_Gradient_Swatch_19"/><linearGradient id="New_Gradient_Swatch_19-4" x1="231.03" y1="114.95" x2="294.16" y2="114.95" xlink:href="#New_Gradient_Swatch_19"/><linearGradient id="New_Gradient_Swatch_19-5" x1="235.42" y1="177.54" x2="322" y2="177.54" xlink:href="#New_Gradient_Swatch_19"/><linearGradient id="New_Gradient_Swatch_19-6" x1="174.48" y1="143.18" x2="235.4" y2="143.18" xlink:href="#New_Gradient_Swatch_19"/><linearGradient id="New_Gradient_Swatch_19-7" x1="146.97" y1="203.45" x2="262.25" y2="203.45" xlink:href="#New_Gradient_Swatch_19"/></defs><g id="Wider"><path class="cls-1" d="M71,265.32c-16.22-4.11-31.47-15.54-43.47-27.77A91.87,91.87,0,0,1,1,172.79,92.8,92.8,0,0,1,59.49,86.85a.8.8,0,0,0,.51-.64A74.51,74.51,0,0,1,174.33,33.88a.82.82,0,0,0,1.08-.16A92.5,92.5,0,0,1,338.86,85a.8.8,0,0,0,.54.7,92.41,92.41,0,0,1-30.77,179.55S71.07,265.34,71,265.32Z"/><path class="cls-2" d="M93,239c-37.29-.71-67.63-31.64-67.63-69a69.16,69.16,0,0,1,55-67.53,4.3,4.3,0,0,0,3.41-4.58c-.12-1.45-.18-2.9-.18-4.3a51,51,0,0,1,93.6-28.14,3.51,3.51,0,0,0,2.93,1.68,3.43,3.43,0,0,0,3.18-2.33,69,69,0,0,1,133.25,25,70.33,70.33,0,0,1-.41,7.42,4.16,4.16,0,0,0,3.54,4.58A69,69,0,0,1,309.52,239H135.4C133.85,239,94.15,239,93,239Z"/><path class="cls-3" d="M174.63,113.76a39,39,0,0,0-10.94,25.11h0a31.58,31.58,0,1,1,10.94-25.12Z"/><path class="cls-4" d="M169.52,161.52c-17.15,8.55-29.51,23.57-32.73,41.24C116.22,202,97.54,198,83,191.65c0-.33,0-.66,0-1,0-16.58,12.18-31,30.25-38.68a75.57,75.57,0,0,0,30.18,6.09,77.66,77.66,0,0,0,22.73-3.34A38.64,38.64,0,0,0,169.52,161.52Z"/><path class="cls-5" d="M294.16,115a31.57,31.57,0,0,1-52.52,23.62h0A38.79,38.79,0,0,0,231,114.09a31.57,31.57,0,0,1,63.13.86Z"/><path class="cls-6" d="M322,190.66c0,.53,0,1.06,0,1.58-14.64,6.12-33.28,10-53.74,10.56-3.17-17.47-15.28-32.36-32.11-41l-.69.34a38.19,38.19,0,0,0,3.87-7.72,77.38,77.38,0,0,0,23.64,3.62,75.77,75.77,0,0,0,29.5-5.8C310.12,160,322,174.29,322,190.66Z"/><circle class="cls-7" cx="204.94" cy="143.18" r="30.46"/><path class="cls-8" d="M262.25,216.21c0,.51,0,1,0,1.53C246.88,224.14,227,228,205.27,228c-22.37,0-42.78-4.09-58.28-10.83,0-.32,0-.64,0-1,0-16,11.75-29.93,29.18-37.31a75.2,75.2,0,0,0,57.58.28C250.79,186.62,262.25,200.42,262.25,216.21Z"/></g></svg>