<svg id="Layer_1" data-name="Layer 1" xmlns="http://www.w3.org/2000/svg" xmlns:xlink="http://www.w3.org/1999/xlink" viewBox="0 0 100 100"><defs><style>.cls-1{fill:#fff;}.cls-2{fill:none;stroke:#111e72;stroke-width:3.29px;}.cls-2,.cls-4{stroke-miterlimit:10;}.cls-3{fill:url(#linear-gradient);}.cls-4{fill:#a3a3a3;stroke:#0d243f;stroke-width:0.83px;}</style><linearGradient id="linear-gradient" x1="-3442.59" y1="2961.41" x2="-3441.92" y2="2960.35" gradientTransform="matrix(66.7, 0, 0, -42.11, 229637.91, 124717.83)" gradientUnits="userSpaceOnUse"><stop offset="0" stop-color="#165425"/><stop offset="0.01" stop-color="#195624"/><stop offset="0.22" stop-color="#4c7f18"/><stop offset="0.41" stop-color="#719c0f"/><stop offset="0.55" stop-color="#88ae09"/><stop offset="0.65" stop-color="#91b508"/><stop offset="1" stop-color="#449b23"/></linearGradient></defs><g id="Group_759" data-name="Group 759"><g id="Ellipse_128" data-name="Ellipse 128"><circle class="cls-1" cx="50.42" cy="50.14" r="50"/><ellipse class="cls-2" cx="50.42" cy="50.14" rx="48.36" ry="48.35"/></g><g id="Group_589" data-name="Group 589"><rect id="Rectangle_961" data-name="Rectangle 961" class="cls-3" x="22.66" y="26.75" width="54.67" height="34.8"/><path id="Path_124-2" data-name="Path 124-2" class="cls-4" d="M75.5,23.27H24.42A5.7,5.7,0,0,0,18.74,29V63a5.69,5.69,0,0,0,5.68,5.68H44.28l-5.67,8.52v2.84h22.7V77.22L55.64,68.7H75.5A5.69,5.69,0,0,0,81.18,63V29A5.7,5.7,0,0,0,75.5,23.27Zm0,34.07H24.42V29H75.5Z"/><path id="Path_728" data-name="Path 728" class="cls-1" d="M46.71,43.49,41.16,38.3l-5.55,5.16,11.1,10.38L64.77,37.1l-5.58-5.19Z"/></g></g></svg>