<svg id="Layer_1" data-name="Layer 1" xmlns="http://www.w3.org/2000/svg" xmlns:xlink="http://www.w3.org/1999/xlink" viewBox="0 0 100 100"><defs><style>.cls-1{fill:#fff;}.cls-2,.cls-8{fill:none;stroke-miterlimit:10;}.cls-2{stroke:#111e72;stroke-width:3.36px;}.cls-3{fill:url(#linear-gradient);}.cls-4{fill:url(#linear-gradient-2);}.cls-5{fill:url(#linear-gradient-3);}.cls-6{fill:#ae0018;}.cls-7{fill:url(#linear-gradient-4);}.cls-8{stroke:#5d5c5c;stroke-width:0.19px;}.cls-9{fill:url(#linear-gradient-5);}</style><linearGradient id="linear-gradient" x1="-2933.11" y1="3279.95" x2="-2932.27" y2="3279.95" gradientTransform="matrix(10.51, 0, 0, -5.83, 30869.09, 19188.25)" gradientUnits="userSpaceOnUse"><stop offset="0" stop-color="#161615"/><stop offset="0.13" stop-color="#191918"/><stop offset="0.24" stop-color="#232322"/><stop offset="0.33" stop-color="#343333"/><stop offset="0.42" stop-color="#4b4b4a"/><stop offset="0.51" stop-color="#6a6969"/><stop offset="0.54" stop-color="#757474"/><stop offset="1" stop-color="#2e2e2d"/></linearGradient><linearGradient id="linear-gradient-2" x1="-3113.41" y1="2946.24" x2="-3112.57" y2="2946.24" gradientTransform="matrix(41.82, 0, 0, -78.41, 130241.75, 231048.76)" gradientUnits="userSpaceOnUse"><stop offset="0" stop-color="#a3a3a3"/><stop offset="0.2" stop-color="#a6a6a6"/><stop offset="0.37" stop-color="#b0b0b0"/><stop offset="0.52" stop-color="#c1c1c1"/><stop offset="0.66" stop-color="#d8d8d8"/><stop offset="0.8" stop-color="#f7f7f7"/><stop offset="0.82" stop-color="#fff"/><stop offset="1" stop-color="#5d5c5c"/><stop offset="1" stop-color="#5d5c5c"/></linearGradient><linearGradient id="linear-gradient-3" x1="-2995.78" y1="2996.25" x2="-2995.78" y2="2997.09" gradientTransform="matrix(14.25, 0, 0, -27.27, 42728.83, 81800.43)" gradientUnits="userSpaceOnUse"><stop offset="0" stop-color="#ffbf00"/><stop offset="0.49" stop-color="#f27c00"/><stop offset="0.56" stop-color="#f07701"/><stop offset="0.64" stop-color="#ed6a03"/><stop offset="0.72" stop-color="#e85408"/><stop offset="0.8" stop-color="#e1350f"/><stop offset="0.81" stop-color="#e13510"/><stop offset="0.85" stop-color="#dc3010"/><stop offset="0.91" stop-color="#cf2312"/><stop offset="0.96" stop-color="#ba0d15"/><stop offset="0.99" stop-color="#ae0018"/></linearGradient><linearGradient id="linear-gradient-4" x1="-2919.62" y1="3098.72" x2="-2918.97" y2="3098.17" gradientTransform="matrix(9.96, 0, 0, -11.7, 29126.56, 36293.5)" gradientUnits="userSpaceOnUse"><stop offset="0" stop-color="#96d6f8"/><stop offset="0.1" stop-color="#afdff9"/><stop offset="0.3" stop-color="#daf0fc"/><stop offset="0.45" stop-color="#f5fbfe"/><stop offset="0.54" stop-color="#fff"/><stop offset="0.59" stop-color="#fafdfe"/><stop offset="0.65" stop-color="#edf7fc"/><stop offset="0.71" stop-color="#d7edfa"/><stop offset="0.77" stop-color="#b8e0f6"/><stop offset="0.83" stop-color="#90cff1"/><stop offset="0.9" stop-color="#60b9eb"/><stop offset="0.96" stop-color="#28a1e4"/><stop offset="1" stop-color="#0090df"/></linearGradient><linearGradient id="linear-gradient-5" x1="-2996.01" y1="3045.15" x2="-2995.36" y2="3044.6" gradientTransform="matrix(14.24, 0, 0, -16.73, 42703.15, 50993.46)" xlink:href="#linear-gradient-4"/></defs><g id="Group_758" data-name="Group 758"><g id="Ellipse_122" data-name="Ellipse 122"><circle class="cls-1" cx="50.42" cy="50.14" r="50"/><circle class="cls-2" cx="50.42" cy="50.14" r="48.32"/></g><g id="Group_585" data-name="Group 585"><rect id="Rectangle_959" data-name="Rectangle 959" class="cls-3" x="46.13" y="63.66" width="8.83" height="4.9"/><path id="Path_722" data-name="Path 722" class="cls-4" d="M68.08,59.39,62.94,71.94a1,1,0,0,1-.67.6h-.14a.83.83,0,0,1-.67-.32l-6.29-7.75-.21.18H46.33l-.24-.2,0,0-6.34,7.8h0a.84.84,0,0,1-.63.31.43.43,0,0,1-.16,0,1,1,0,0,1-.68-.59L33.11,59.4a1.26,1.26,0,0,1,.13-1.16l5.15-7.05,0,0v0a47.76,47.76,0,0,1-2.23-14.33,36.35,36.35,0,0,1,4.33-16.47c.17-.34.33-.66.51-1,.45-.83.91-1.62,1.37-2.38l.71-1.11A55,55,0,0,1,47.46,10C49,8.22,50,7.24,50,7.23l.6-.57.6.57a51.36,51.36,0,0,1,6.9,8.59c.24.35.48.73.71,1.11.47.76.93,1.55,1.38,2.38.18.32.35.65.52,1A36.44,36.44,0,0,1,65,36.76a47.43,47.43,0,0,1-2.07,14.05l-.1.34v.08l5.13,7A1.19,1.19,0,0,1,68.08,59.39Z"/><path id="Path_723" data-name="Path 723" class="cls-5" d="M46.1,83.75c-1.48-7-1.48-7.84-1.48-8.16a5.23,5.23,0,0,1,1.26-3.42,6.19,6.19,0,0,1,4.71-2h.1a6.78,6.78,0,0,1,3.4.95l.07.05a5.16,5.16,0,0,1,2.43,4.41c0,.46,0,1.06-1.42,7.94l-1.84,8.9-2.61-5.79-2.66,6.45Z"/><path id="Path_724" data-name="Path 724" class="cls-6" d="M68.08,59.39,62.94,71.94a1,1,0,0,1-.67.6h-.14a.86.86,0,0,1-.67-.32l-6.3-7.75-.2.18,8-13.84-.1.34v.07l5.13,7A1.19,1.19,0,0,1,68.08,59.39Z"/><path id="Path_725" data-name="Path 725" class="cls-6" d="M58.09,15.82h-15A56.35,56.35,0,0,1,47.46,10C49,8.22,50,7.24,50,7.23l.6-.57.61.57A51.86,51.86,0,0,1,58.09,15.82Z"/><path id="Path_726" data-name="Path 726" class="cls-6" d="M46.09,64.45l0,0-6.34,7.8v0a.83.83,0,0,1-.63.3.29.29,0,0,1-.16,0,1,1,0,0,1-.68-.59L33.11,59.4a1.26,1.26,0,0,1,.13-1.16l5.15-7.05Z"/><ellipse id="Ellipse_123" data-name="Ellipse 123" class="cls-7" cx="50.31" cy="29.23" rx="4.18" ry="4.92"/><ellipse id="Ellipse_124" data-name="Ellipse 124" class="cls-8" cx="50.61" cy="46.63" rx="8.06" ry="9.48"/><ellipse id="Ellipse_125" data-name="Ellipse 125" class="cls-9" cx="50.6" cy="46.63" rx="5.98" ry="7.03"/><ellipse id="Ellipse_126" data-name="Ellipse 126" class="cls-8" cx="50.31" cy="29.23" rx="5.34" ry="6.28"/></g></g></svg>