<svg id="Layer_1" data-name="Layer 1" xmlns="http://www.w3.org/2000/svg" xmlns:xlink="http://www.w3.org/1999/xlink" viewBox="0 0 100 100"><defs><style>.cls-1{fill:#fff;}.cls-2{fill:none;stroke:#111e72;stroke-width:3.4px;}.cls-2,.cls-3{stroke-miterlimit:10;}.cls-3{stroke:#161615;stroke-width:1.7px;fill:url(#linear-gradient);}.cls-4{fill:#161615;}</style><linearGradient id="linear-gradient" x1="-2986.26" y1="2950.62" x2="-2985.41" y2="2950.62" gradientTransform="matrix(67.6, 0, 0, -67.6, 201893.29, 199511.77)" gradientUnits="userSpaceOnUse"><stop offset="0" stop-color="#ae0018"/><stop offset="0.01" stop-color="#d2d1d1"/><stop offset="0.08" stop-color="#d5d4d4"/><stop offset="0.14" stop-color="#dedede"/><stop offset="0.19" stop-color="#efefef"/><stop offset="0.23" stop-color="#fff"/><stop offset="0.81" stop-color="#fff"/><stop offset="0.88" stop-color="#e8e7e7"/><stop offset="0.95" stop-color="#d7d6d6"/><stop offset="1" stop-color="#d2d1d1"/></linearGradient></defs><g id="Group_757" data-name="Group 757"><g id="Ellipse_115" data-name="Ellipse 115"><circle class="cls-1" cx="50" cy="50.32" r="50"/><circle class="cls-2" cx="50" cy="50.32" r="48.3"/></g><path id="Path_679" data-name="Path 679" class="cls-3" d="M79.48,27.72V72.43a6.4,6.4,0,0,1-6.38,6.38H28.4A6.41,6.41,0,0,1,22,72.43V27.72a6.41,6.41,0,0,1,6.39-6.38H73.1A6.4,6.4,0,0,1,79.48,27.72Z"/><rect id="Rectangle_944" data-name="Rectangle 944" class="cls-4" x="31.09" y="42.19" width="39.3" height="6.49"/><rect id="Rectangle_945" data-name="Rectangle 945" class="cls-4" x="30.96" y="31.46" width="39.3" height="6.49"/><rect id="Rectangle_946" data-name="Rectangle 946" class="cls-4" x="31.23" y="52.92" width="39.3" height="6.49"/><rect id="Rectangle_947" data-name="Rectangle 947" class="cls-4" x="31.23" y="63.65" width="18.5" height="6.37"/></g></svg>