<svg id="Layer_1" data-name="Layer 1" xmlns="http://www.w3.org/2000/svg" xmlns:xlink="http://www.w3.org/1999/xlink" viewBox="0 0 100 100"><defs><style>.cls-1{fill:#fff;}.cls-2{fill:none;stroke:#111e72;stroke-miterlimit:10;stroke-width:3.39px;}.cls-3{fill:url(#linear-gradient);}.cls-4{fill:#be1222;}.cls-5{fill:url(#linear-gradient-2);}</style><linearGradient id="linear-gradient" x1="21.01" y1="50.08" x2="78.48" y2="50.08" gradientUnits="userSpaceOnUse"><stop offset="0.02" stop-color="#0b2a4f"/><stop offset="0.54" stop-color="#005fab"/><stop offset="1" stop-color="#0b2a4f"/></linearGradient><linearGradient id="linear-gradient-2" x1="21.01" y1="50.08" x2="78.48" y2="50.08" gradientUnits="userSpaceOnUse"><stop offset="0" stop-color="#ae0018"/><stop offset="0.54" stop-color="#c10020"/><stop offset="1" stop-color="#ae0018"/></linearGradient></defs><g id="Ellipse_127" data-name="Ellipse 127"><circle class="cls-1" cx="49.81" cy="51.02" r="50"/><circle class="cls-2" cx="49.81" cy="51.02" r="48.31"/></g><path class="cls-3" d="M78.48,27.72V72.56a6.35,6.35,0,0,1-1.57,4,6.22,6.22,0,0,1-3.28,2,6.41,6.41,0,0,1-1.53.19H27.4a6,6,0,0,1-1.59-.21,6.39,6.39,0,0,1-4.34-3.82A6.56,6.56,0,0,1,21,72.43V27.72a6,6,0,0,1,.08-.95,6.42,6.42,0,0,1,5-5.3h0a6,6,0,0,1,1.28-.13H72.1a6.08,6.08,0,0,1,1.22.12,6.52,6.52,0,0,1,1.69.59,6.38,6.38,0,0,1,2.8,2.85A6.23,6.23,0,0,1,78.48,27.72Z"/><polygon class="cls-1" points="78.48 42 78.48 57 57 57 57 78.81 42 78.81 42 57 21.01 57 21.01 42 42 42 42 21.34 57 21.34 57 42 78.48 42"/><path class="cls-1" d="M78.48,27.72v.85l-52.67,50A6.39,6.39,0,0,1,21,72.43V71.14L73.32,21.46A6.4,6.4,0,0,1,78.48,27.72Z"/><path class="cls-1" d="M78.48,71.21v1.22a6.4,6.4,0,0,1-4.85,6.19L21,28.64v-.92a6.41,6.41,0,0,1,5.1-6.25h0Z"/><path class="cls-4" d="M42,41.12V42H37.12l-16-15.23A6.27,6.27,0,0,1,23,23.09Z"/><path class="cls-4" d="M78.48,72.56a6.35,6.35,0,0,1-1.57,4L57,57.68V57h5.09Z"/><path class="cls-4" d="M42,57v3.8l-17.95,17a6.36,6.36,0,0,1-2.58-3.07L40.19,57Z"/><path class="cls-4" d="M77.81,24.9,59.81,42H57V39.15l18-17.1A6.38,6.38,0,0,1,77.81,24.9Z"/><polygon class="cls-5" points="78.48 45 78.48 54 54 54 54 78.81 45 78.81 45 54 21.01 54 21.01 45 45 45 45 21.34 54 21.34 54 45 78.48 45"/></svg>