<svg id="Layer_1" data-name="Layer 1" xmlns="http://www.w3.org/2000/svg" xmlns:xlink="http://www.w3.org/1999/xlink" viewBox="0 0 100 100"><defs><style>.cls-1{fill:#fff;}.cls-2{fill:none;stroke:#111e72;stroke-miterlimit:10;stroke-width:3.4px;}.cls-3{fill:url(#linear-gradient);}</style><linearGradient id="linear-gradient" x1="-2827.8" y1="2949.97" x2="-2827.01" y2="2950.77" gradientTransform="matrix(68.13, 0, 0, -68.14, 192688.99, 201074)" gradientUnits="userSpaceOnUse"><stop offset="0" stop-color="#ae0018"/><stop offset="0.74" stop-color="#d8006b"/><stop offset="1" stop-color="#8d094a"/></linearGradient></defs><g id="Group_756" data-name="Group 756"><g id="Ellipse_114" data-name="Ellipse 114"><circle class="cls-1" cx="49.82" cy="50.45" r="50"/><circle class="cls-2" cx="49.82" cy="50.45" r="48.3"/></g><g id="Group_20" data-name="Group 20"><path id="Path_118" data-name="Path 118" class="cls-3" d="M72.08,21.48H27a6.46,6.46,0,0,0-6.43,6.44V73A6.44,6.44,0,0,0,27,79.41H72.08A6.44,6.44,0,0,0,78.51,73V27.92A6.45,6.45,0,0,0,72.08,21.48ZM52.87,34.55l3.41-3.41,4.54,4.54,4.54-4.54,3.41,3.41-4.54,4.54,4.54,4.54L65.36,47l-4.54-4.5-4.54,4.54-3.41-3.42,4.54-4.54ZM31.05,36.68H47.14V41.5H31.05ZM47.94,63.32H41.51v6.44H36.68V63.32H30.25V58.5h6.43V52.07h4.83V58.5h6.43Zm20.92,4H52.77V62.52H68.86Zm0-8H52.77V54.47H68.86Z"/></g></g></svg>