<svg xmlns="http://www.w3.org/2000/svg" xmlns:xlink="http://www.w3.org/1999/xlink" viewBox="0 0 401 266"><defs><style>.cls-1{fill:url(#New_Gradient_Swatch_19);}.cls-2{fill:url(#linear-gradient);}.cls-3{fill:url(#New_Gradient_Swatch_19-2);}.cls-4{fill:url(#New_Gradient_Swatch_19-3);}.cls-5{fill:url(#New_Gradient_Swatch_19-4);}.cls-6{fill:url(#New_Gradient_Swatch_19-5);}.cls-7{fill:url(#New_Gradient_Swatch_19-6);}</style><linearGradient id="New_Gradient_Swatch_19" x1="0.04" y1="132.75" x2="400.04" y2="132.75" gradientUnits="userSpaceOnUse"><stop offset="0" stop-color="#cacccd"/><stop offset="1" stop-color="#fff"/></linearGradient><linearGradient id="linear-gradient" x1="24.38" y1="130.94" x2="377.48" y2="130.94" gradientUnits="userSpaceOnUse"><stop offset="0" stop-color="#f0508f"/><stop offset="1" stop-color="#a10b50"/></linearGradient><linearGradient id="New_Gradient_Swatch_19-2" x1="79.09" y1="133.54" x2="134.72" y2="133.54" xlink:href="#New_Gradient_Swatch_19"/><linearGradient id="New_Gradient_Swatch_19-3" x1="53.97" y1="188.58" x2="159.25" y2="188.58" xlink:href="#New_Gradient_Swatch_19"/><linearGradient id="New_Gradient_Swatch_19-4" x1="267.7" y1="133.54" x2="323.33" y2="133.54" xlink:href="#New_Gradient_Swatch_19"/><linearGradient id="New_Gradient_Swatch_19-5" x1="242.57" y1="188.58" x2="347.85" y2="188.58" xlink:href="#New_Gradient_Swatch_19"/><linearGradient id="New_Gradient_Swatch_19-6" x1="149" y1="156.23" x2="254" y2="156.23" xlink:href="#New_Gradient_Swatch_19"/></defs><g id="Wider"><path class="cls-1" d="M70,265.32c-16.22-4.11-31.47-15.54-43.47-27.77A91.87,91.87,0,0,1,0,172.79,92.8,92.8,0,0,1,58.49,86.85a.8.8,0,0,0,.51-.64A74.51,74.51,0,0,1,173.33,33.88a.82.82,0,0,0,1.08-.16A92.5,92.5,0,0,1,337.86,85a.8.8,0,0,0,.54.7,92.41,92.41,0,0,1-30.77,179.55S70.07,265.34,70,265.32Z"/><path class="cls-2" d="M92,240c-37.29-.71-67.63-31.64-67.63-69a69.16,69.16,0,0,1,55-67.53,4.3,4.3,0,0,0,3.41-4.58c-.12-1.45-.18-2.9-.18-4.3a51,51,0,0,1,93.6-28.14,3.51,3.51,0,0,0,2.93,1.68,3.43,3.43,0,0,0,3.18-2.33,69,69,0,0,1,133.25,25,70.33,70.33,0,0,1-.41,7.42,4.16,4.16,0,0,0,3.54,4.58A69,69,0,0,1,308.52,240H134.4C132.85,240,93.15,240,92,240Z"/><circle class="cls-3" cx="106.91" cy="133.54" r="27.82"/><path class="cls-4" d="M159.25,200.23c0,.47,0,.94,0,1.4-14,5.85-32.15,9.37-52,9.37-20.43,0-39.07-3.73-53.22-9.89,0-.29,0-.58,0-.88,0-14.6,10.73-27.33,26.65-34.07a68.64,68.64,0,0,0,52.58.25C148.79,173.21,159.25,185.82,159.25,200.23Z"/><circle class="cls-5" cx="295.51" cy="133.54" r="27.82"/><path class="cls-6" d="M347.85,200.23c0,.47,0,.94,0,1.4-14,5.85-32.16,9.37-52,9.37-20.43,0-39.07-3.73-53.22-9.89,0-.29,0-.58,0-.88,0-14.6,10.73-27.33,26.65-34.07a68.64,68.64,0,0,0,52.58.25C337.39,173.21,347.85,185.82,347.85,200.23Z"/><polygon class="cls-7" points="222.25 195.47 222.25 164.96 180.75 164.96 180.75 195.47 149 156.24 180.75 117 180.75 147.51 222.25 147.51 222.25 117 254 156.24 222.25 195.47"/></g></svg>