<svg id="Layer_1" data-name="Layer 1" xmlns="http://www.w3.org/2000/svg" xmlns:xlink="http://www.w3.org/1999/xlink" viewBox="0 0 100 100"><defs><style>.cls-1{fill:#fff;}.cls-2{fill:none;stroke:#111e72;stroke-width:3.4px;}.cls-2,.cls-5{stroke-miterlimit:10;}.cls-3{fill:url(#linear-gradient);}.cls-4{fill:#111e72;}.cls-5{fill:#a3a3a3;stroke:#0d243f;stroke-width:0.85px;}</style><linearGradient id="linear-gradient" x1="-2663.8" y1="2969.79" x2="-2663.09" y2="2968.74" gradientTransform="matrix(61.28, 0, 0, -42.01, 163261.13, 124785.1)" gradientUnits="userSpaceOnUse"><stop offset="0.02" stop-color="#0090df"/><stop offset="0.54" stop-color="#fff"/><stop offset="1" stop-color="#0090df"/></linearGradient></defs><g id="Group_754" data-name="Group 754"><g id="Ellipse_112" data-name="Ellipse 112"><circle class="cls-1" cx="50.42" cy="50.45" r="50"/><circle class="cls-2" cx="50.42" cy="50.45" r="48.3"/></g><rect id="Rectangle_937" data-name="Rectangle 937" class="cls-3" x="24.37" y="28.38" width="52.1" height="35.72"/><path id="Path_678" data-name="Path 678" class="cls-4" d="M61.39,57.26c-1.45-1.36-4.5-1.62-5.06-1.75a1,1,0,0,1-.47-.3A2.46,2.46,0,0,0,55,54.4c-.55-.22-1-.89-1.5-1.33v0a2,2,0,0,0,0-.24v-.07c0-.1,0-.21,0-.31s0,0,0-.08a2.36,2.36,0,0,1,0-.28s0-.06,0-.09,0-.24,0-.37v-.07c0-.1,0-.21,0-.33v-.1c0-.13,0-.27,0-.41a.43.43,0,0,1,0,0c0-.13.05-.26.08-.39l0-.11.09-.31c1.15-.87,2-1.65,2-3a4,4,0,0,1,.06-.7c.79.38,1.09-.62,1.31-1.11a4,4,0,0,0,.5-2.64.39.39,0,0,0-.46-.32l-.08,0a6.05,6.05,0,0,0,0-3l.54.12a2.53,2.53,0,0,0-1-1.22,3.49,3.49,0,0,0-2.08-3v.27a4.16,4.16,0,0,0-1.63-1.34v.24c-.34-.16-1.48-.87-1.48-.87v.27a7.43,7.43,0,0,0-1.31-.27l.62-.36-.62.11v-.43l-1.26.28.5-.47c-1.88.23-2.48,1.5-2.92,1.58s-1,.2-1,.2l.49.16c-.88.39-.93.82-.93.82l-.94.24h.64L44,36a4.85,4.85,0,0,0-1.44.67h.84a4,4,0,0,0-1.31,1c.2-.18.85,0,.85,0a2.77,2.77,0,0,0-.78,3,10.22,10.22,0,0,0,.43,1.43.38.38,0,0,0-.44.29h0A4,4,0,0,0,42.6,45c.23.53.56,1.64,1.5,1a5.54,5.54,0,0,1,.07.81c0,1.26.72,2,1.76,2.84h0s.73,1,.26,3.38c-.49.44-1,1.12-1.5,1.34s-.68.7-1,1a.89.89,0,0,1-.31.15c-.56.13-3.61.39-5.06,1.75s-1.1,6.84-1.1,6.84H62.48S62.85,58.63,61.39,57.26ZM53.46,36.73h0Zm-7.52.12h0Zm0,17.34A.84.84,0,0,1,46,54s0,.11-.05.17Zm-2.3,1.26a.72.72,0,0,0-.12.21.94.94,0,0,1,.12-.22Zm-.17.34a1.6,1.6,0,0,0,0,.84,1.6,1.6,0,0,1,0-.84Z"/><path id="Path_124" data-name="Path 124" class="cls-5" d="M74.73,24.81H26.05a5.65,5.65,0,0,0-5.41,5.83v35a5.65,5.65,0,0,0,5.41,5.83H45l-5.41,8.74V83.1H61.21V80.18L55.8,71.44H74.73a5.65,5.65,0,0,0,5.41-5.83v-35A5.65,5.65,0,0,0,74.73,24.81Zm0,35H26.05V30.64H74.73Z"/></g></svg>