<svg xmlns="http://www.w3.org/2000/svg" xmlns:xlink="http://www.w3.org/1999/xlink" viewBox="0 0 408 267"><defs><style>.cls-1{fill:url(#New_Gradient_Swatch_19);}.cls-2{fill:url(#linear-gradient);}.cls-3{fill:none;}.cls-4{fill:url(#New_Gradient_Swatch_19-2);}</style><linearGradient id="New_Gradient_Swatch_19" x1="2.04" y1="134.43" x2="402.04" y2="134.43" gradientUnits="userSpaceOnUse"><stop offset="0" stop-color="#cacccd"/><stop offset="1" stop-color="#fff"/></linearGradient><linearGradient id="linear-gradient" x1="26.38" y1="131.61" x2="379.48" y2="131.61" gradientUnits="userSpaceOnUse"><stop offset="0" stop-color="#f5812a"/><stop offset="1" stop-color="#dc2b2b"/></linearGradient><linearGradient id="New_Gradient_Swatch_19-2" x1="143.78" y1="155.02" x2="271" y2="155.02" xlink:href="#New_Gradient_Swatch_19"/></defs><g id="Wider"><path class="cls-1" d="M72,267c-16.22-4.11-31.47-15.55-43.47-27.77A91.87,91.87,0,0,1,2,174.47,92.79,92.79,0,0,1,60.49,88.53a.8.8,0,0,0,.51-.65A74.51,74.51,0,0,1,175.33,35.56a.82.82,0,0,0,1.08-.16A92.5,92.5,0,0,1,339.86,86.64a.81.81,0,0,0,.54.7,92.41,92.41,0,0,1-30.77,179.54S72.07,267,72,267Z"/><path class="cls-2" d="M94,240.67c-37.29-.71-67.63-31.64-67.63-69a69.17,69.17,0,0,1,55-67.54,4.28,4.28,0,0,0,3.41-4.57c-.12-1.45-.18-2.9-.18-4.3a51,51,0,0,1,93.6-28.14,3.51,3.51,0,0,0,2.93,1.68,3.43,3.43,0,0,0,3.18-2.33,69,69,0,0,1,133.25,25,70,70,0,0,1-.41,7.42,4.16,4.16,0,0,0,3.54,4.59,69,69,0,0,1-10.22,137.16H136.4C134.85,240.68,95.15,240.69,94,240.67Z"/><path class="cls-3" d="M183.78,56.41h24v24h-24Z"/><path class="cls-4" d="M256.86,91.41h-99a14.18,14.18,0,0,0-14.13,14.14v99a14.17,14.17,0,0,0,14.13,14.13h99A14.18,14.18,0,0,0,271,204.5V105.55A14.18,14.18,0,0,0,256.86,91.41Zm-35.33,99H172.05V176.23h49.48Zm21.2-28.27H172.05V148h70.68Zm0-28.27H172.05V119.68h70.68Z"/></g></svg>