<svg xmlns="http://www.w3.org/2000/svg" viewBox="0 0 99.69 99.4"><defs><style>.cls-1{fill:#f5a804;}.cls-2{fill:#ffc904;}.cls-3{font-size:20px;font-family:Arial-Black, Arial Black;font-weight:800;}.cls-4{letter-spacing:-0.02em;}.cls-5{letter-spacing:-0.03em;}</style></defs><g id="Wider"><g id="Group_1073" data-name="Group 1073"><g id="Group_1072" data-name="Group 1072"><path id="Path_2790" data-name="Path 2790" class="cls-1" d="M.18,38.09a.17.17,0,0,0,0-.1A2.27,2.27,0,0,1,0,37.74Z"/><path id="Path_2791" data-name="Path 2791" class="cls-1" d="M6.67,22.74l.07-.07S6.65,22.6,6.67,22.74Z"/><path id="Path_2792" data-name="Path 2792" class="cls-1" d="M8,75a1.29,1.29,0,0,1-.19-.21A.48.48,0,0,0,8,75Z"/><path id="Path_2793" data-name="Path 2793" class="cls-1" d="M88.91,79l0,.06L89,79Z"/><path id="Path_2794" data-name="Path 2794" class="cls-1" d="M88.72,79.47c-.08,0,.08-.26.15-.37A2.79,2.79,0,0,0,88,80C88.14,80,88.49,79.61,88.72,79.47Z"/><path id="Path_2795" data-name="Path 2795" class="cls-1" d="M88.82,79.37l-.1.07Z"/><path id="Path_2796" data-name="Path 2796" class="cls-1" d="M97.58,35.71l.24,0A.26.26,0,0,0,97.58,35.71Z"/><path id="Path_2797" data-name="Path 2797" class="cls-1" d="M16.48,11a.29.29,0,0,0,.18.07v0Z"/><path id="Path_2798" data-name="Path 2798" class="cls-1" d="M83.78,16.1,83.46,16a1.34,1.34,0,0,0,.28.18A.36.36,0,0,0,83.78,16.1Z"/><path id="Path_2799" data-name="Path 2799" class="cls-1" d="M33,2.27,33.74,2l1.14-.45s0-.07,0-.1a15.13,15.13,0,0,0-2.37.74l0,.29Z"/><path id="Path_2800" data-name="Path 2800" class="cls-1" d="M98.59,58.44c.1-.45.19-.93.28-1.42s.13-1,.2-1.46A16.84,16.84,0,0,1,99.54,53a4.23,4.23,0,0,0,0-2.12c-.12-.66-.3-1.21-.32-1.48a4.34,4.34,0,0,1,0-1.93c.08-.35.19-.57.23-.46-.17-1.58-.87-3-.87-5.19a2.22,2.22,0,0,0,0-1.3c-.11-.6-.33-1.32-.53-2-.43-1.38-.9-2.65-.57-2.77h-.07a11.42,11.42,0,0,0-.44-2.09,20.87,20.87,0,0,0-.76-2c-.28-.66-.61-1.3-.88-2a18.94,18.94,0,0,1-.78-2.12.54.54,0,0,1,.16.1l-.72-.75c-.43-.44-1-1-1.65-1.55s-1.24-1.07-1.71-1.46L90,23.24l-.57,1.36c-.28.67-.62,1.32-.62,1.32a.89.89,0,0,0,0,.22c-.58-1.05-1.21-2.08-1.88-3.09-.15-.37-.32-.78-.51-1.19-.34-.76-.69-1.57-1-2.27s-.61-1.34-.78-1.71c.65.84.72,1,.66.77s-.3-.62-.38-.83h-.2c-.75-1-.5-1.25-.86-1.79a.31.31,0,0,0,0,.1h.09c0,.08-.05.08-.13.05s-.12.06-.35-.2h.07a16.32,16.32,0,0,1-1.33-1.3l.19-.21a3.27,3.27,0,0,1-1.14-.88c-.22-.24-.47-.52-.72-.82s-.54-.57-.81-.91-.57-.64-.83-.93l-.8-.85c-.25-.26-.49-.5-.69-.69A5.17,5.17,0,0,0,76.85,9C76,7.93,74.34,7.44,73,6.51c-2.28-1.31-1-1-2-1.78-1.42-.87.17.44-.44.17l-.81-.57c-.42-.29-.84-.56-.84-.56,1.08.41.57,0,.42-.17-.79-.35-1.76-.92-2.66-1.29a8.8,8.8,0,0,0-1.21-.45,1.22,1.22,0,0,0-.8,0l-1.25-.57L62.66.9a5,5,0,0,0-1.1-.46c.3.18.93.44.9.56-.85-.47-.45-.05-.09.1A9,9,0,0,1,60.66.63c-.74-.21-1.59-.56-2.42-.77C56.57-.64,55-.95,54.82-.66V-.77c-.38.42.11.92-.9,1.07L53.28.06l-1,.14C51.62,0,52-.09,52-.15a21.8,21.8,0,0,1-2.8,0c-1,0-2.07-.07-3,0a11.05,11.05,0,0,1,1.07.57l1,.57C46.62.7,43.6.48,43.33.94L42.82.8,42.29.66c-3.41-.19-2.2.78-3.52.83l-.87,0H37s.39-.13.8-.22l.83-.2-1.08.11-.87.09c-.57.06-1.07.07-1.76.14h.18l-.22.09a4.59,4.59,0,0,1-2.05,1.12c-.78.28-1.46.61-2.28,1a12.42,12.42,0,0,1-1.3.56c-.25.1-.51.19-.79.28s-.57.21-.91.3l-.37.73s-.48.16-.94.34l-.91.39-.19-.32c.85-.51,2.1-1.19,3.42-1.9l2-1,1.93-.8V2c-.7.28-1.44.62-2.11.94s-1.27.66-1.71.85-1.52.33-1.21-.11l-.53.6c-1.14.57-1.93,1.1-2.63,1.5s-1.22.76-1.79,1.1S21.45,7.52,20.76,8l-1.23.73c-.44.28-.92.62-1.47,1l.48-.15c-.38.38-.75.75-1.08,1a1.33,1.33,0,0,1-.8.46c-2.42,2.08-4.84,4.41-6.5,5.78l0,.31,0,.32c-.42.53-1.58,1-1.27,1.59l-.12.2-.22.46-.32.64a9.45,9.45,0,0,0-.62,1.06A4.16,4.16,0,0,1,6.9,22.5h0l-.15.15h0c-.63.85-.53.9-.47,1s.11.17-.57,1.17c-.64.54.09,1-.49,2l-1.08.79a6.66,6.66,0,0,0-.94,2.27c-.08.36-.15.76-.27,1.25s-.3,1.06-.52,1.79c-.64,1.33-1.38,1.89-1.55.8.07.74.14.92.14,1.14S1,35.32.91,36.23c-.31.21-.31,0-.42-.42-.34.74-.34,1-.29,1.21a1.81,1.81,0,0,1,0,1c.37.42,1,1,.94,1.33l.23-.42a14.58,14.58,0,0,1-.09,2,16,16,0,0,1-.37,2.07l-.22-.08v1.55l-.29.07v2.25l.08-.3c0,.26,0,.81,0,1.43v.92a5.64,5.64,0,0,1,0,.85l-.16,0c-.42,2.79.45,5,1.14,8.17l-.4-.35c-.1,1.13.52.2.65,1.51l-.37.15c.79,1,.22,1.48.25,2.31l.4-.5.32,1.48c.14.82.07,1.13-.1,1.18a1,1,0,0,1-.57-.16l.38.48.38.47L2,64.7c.79.6.16.83,1,2.09-.12.17-.35-.14-.23.36l.62.95.8,1-.43-.57-.3-.41-.13-.2.69-.1a3.57,3.57,0,0,1,.88,1.47,3.36,3.36,0,0,0,.57,1.28l-.27-.28C5.1,70.11,5,70,5,70A7.26,7.26,0,0,1,6.05,72.6c0-.33-.09-.83.32-.25.29.42-.07.35.12.81.22-.06.57.15.86.5a5.83,5.83,0,0,1,.85,1.39.23.23,0,0,1-.2,0,1.55,1.55,0,0,1,.57.74l-.57,0,.93.57c.25.62,1.14,1.13.79,1.28l-.3-.24.44.63c.26.38.61.89,1,1.37l1,1.33c.29.36.5.57.5.57l-.26.32c.38,0,.79.53,1.14,1s.74.83.92.53a6.22,6.22,0,0,0,1.43,1.55c.57.49.94.87.48,1,.29.28.57.53.86.77s.57.43.87.62a19,19,0,0,0,1.71,1.09c.6.34,1.14.72,1.8,1.14s1.33.92,2.12,1.51A8.47,8.47,0,0,0,26.25,93c.33.18.65.37,1,.54l1,.48,1,.47.93.41a48.47,48.47,0,0,0,6.36,1.8c1,.19,2,.42,3.1.57.53.08,1.09.18,1.66.25l1.81.2a8,8,0,0,0,2.46.61,20.83,20.83,0,0,0,2.85.08,53.4,53.4,0,0,1,5.52-.17l.86-.44a6.17,6.17,0,0,0,1.82,0,16,16,0,0,0,2.09-.32,39.53,39.53,0,0,1,4.56-.79,9.38,9.38,0,0,1,1.2-.57A.46.46,0,0,1,64,95.9c.89-.06,2.48-.83,2.52-.36l-.2.12c0,.24.62,0,1.36-.34a6.19,6.19,0,0,1,2.09-.77l-.69-.26.78-.26.77-.31-.36.27c3-1.95,5.28-3.14,7.46-4.43a21.2,21.2,0,0,0,6.37-5.32c-.14.49.06.22.35-.13s.63-.81.87-.63a3.27,3.27,0,0,0,1.77-1.58c.38-.67.67-1.35,1-2a.2.2,0,0,1,0-.14l.79-.9c.2-.23.4-.46.53-.63l.23-.3c-.25,1.6.53-1.76.26-.32a34.17,34.17,0,0,0,5.53-8.88,61.42,61.42,0,0,0,3.49-10.65Z"/><path id="Path_2801" data-name="Path 2801" class="cls-1" d="M99.53,47a.38.38,0,0,1,0,.15A.38.38,0,0,0,99.53,47Z"/><path id="Path_2802" data-name="Path 2802" class="cls-1" d="M27.49,3.64l.14-.16A1.07,1.07,0,0,0,27.49,3.64Z"/><path id="Path_2804" data-name="Path 2804" class="cls-1" d="M69.31,3.57a6.48,6.48,0,0,0,1,.35C69.28,3.4,69.2,3.45,69.31,3.57Z"/><path id="Path_2805" data-name="Path 2805" class="cls-1" d="M84.87,17.82h.24C84.87,17.63,84.84,17.67,84.87,17.82Z"/></g></g><path id="Path_2806" data-name="Path 2806" class="cls-2" d="M75.16,13.89c-.11-.09-.24-.17-.36-.26.24-.24-.81-1.12-1.35-1.72l1.73,1.15c.43.3.84.62,1.15.84l.52.39-1.2-.55c.22,0,0-.19-.29-.47a12.58,12.58,0,0,0-1.22-.84,17.49,17.49,0,0,0,2,2.25Zm-.36-.26-.37-.25-.34-.24H74a9.49,9.49,0,0,1,.77.56h0Zm-.06.38c.69.36.19,0-.33-.3s-1-.69-.4-.57a2.06,2.06,0,0,1-.61-.49c-.72-.16.18.56,1.34,1.38Zm6.92,5.18a1.61,1.61,0,0,0-.36-.67C81.23,18.52,81.43,18.85,81.66,19.19Zm-.34.1c-.27,0-.34.09.76,1.56-.44-.7-.91-1.39-.48-1.27l.54.66c.21.07,0-.35-.31-.79l-.17-.25c0,.15-.19.1-.34.09Zm-3.27-1.65.51.34s-.67-.8-1.4-1.53S75.69,15,75.69,15C75.67,15.61,77.18,16.28,78.05,17.64ZM93.89,55.73v.42l.1-.57Zm0,.42a5.47,5.47,0,0,1-.47,1.52,7,7,0,0,0-.39,1.8l.15-.41.31-.92.3-.93c.08-.25.12-.43.12-.43v-.63ZM93.67,56l.21-.28c0-2.43.76-3.43.53-6.92C94.17,51.35,93.92,54,93.67,56ZM88.89,42.25l.66.09A20.54,20.54,0,0,1,89.17,40c0-.34-.09-.68-.17-1.08a13.87,13.87,0,0,0-.43-1.43v-.07h0c-.35,1,.55,3.07.35,4.83Zm3.43,17.31c-.08.4-.17.85-.28,1.33s-.29,1-.45,1.56c-.09-.39.28-1.75-.16-1a5.62,5.62,0,0,1,.1.7c-.09.18-.18.39-.28.61l.28-.61a21.88,21.88,0,0,1-1.75,5.46c-.47,1.1-1,2.18-1.59,3.23l.38-.37-.33.44s-.08.33-.17.65l-.18.66c-.28.29-.59.64-.92,1,0,.1-.06.35-.27.73a14.35,14.35,0,0,1-1.11,1.68c-.48.63-1,1.34-1.57,2l-.79,1-.72.84c-.64.51-.9.58-.6,0a5.52,5.52,0,0,0,1.59-1.74c.15-.23.32-.49.51-.75l-.37.46a52.5,52.5,0,0,1-5.43,5.73c1.76-1.49,3.54-3.43,3-2.07-.62.28-1.92,1.37-3.5,2.49a33,33,0,0,1-3.15,2.08c-.57.4-1.13.79-1.72,1.17V87a13.43,13.43,0,0,0,1.33-.76,11.72,11.72,0,0,1-1.32.78h0l-.08,0a2.53,2.53,0,0,1-.23.12c-.35.17-.69.33-1,.46a7.1,7.1,0,0,0-.75.44c-2,1.11-4.09,2.14-6.5,3.22a32.07,32.07,0,0,1-7.51,1.95A55.8,55.8,0,0,1,48,93.7a39.41,39.41,0,0,1-9.14-1.63l.24.1a34.88,34.88,0,0,1-13.28-6.09l-.35-.27c-1.8-1.11-3.51-2.26-5.16-3.41a8.13,8.13,0,0,1-1.07-.87A16,16,0,0,1,18,80.29c-.4-.48-.82-1-1.21-1.52a19.66,19.66,0,0,1-1-1.69,25,25,0,0,1-6.66-9.32c-.47-1-.85-2.09-1.22-3.15a27.31,27.31,0,0,1-.92-3.26,42.27,42.27,0,0,1-1-6.34,13.62,13.62,0,0,1,0-2,11.67,11.67,0,0,1,.17-1.67c.1-.5.2-.94.31-1.33a10.33,10.33,0,0,1,.36-1v-.57a39.84,39.84,0,0,1,1.15-11,37.89,37.89,0,0,1,4.82-11.11A41.71,41.71,0,0,1,23.24,14.74a39.51,39.51,0,0,1,14.83-6.9c1-.31,2.13-.61,3.4-.9L44,6.27l.82,0c.6-.09,1.2-.18,1.81-.24,3.21-.4,6.44-.45,8.75-.53a35,35,0,0,1,5.5,1.62,26.75,26.75,0,0,1,3.49,1.12c3.69,1.51,5.36,3.08,6.2,4.18a4.31,4.31,0,0,1,.79,2.84,32.28,32.28,0,0,0-5.61-1.92,53.46,53.46,0,0,0-6.05-1l-.37,0h-.57l-.39-.08a107.43,107.43,0,0,0-13.06-.46,13.74,13.74,0,0,0-2.57.25,20.44,20.44,0,0,0-2.89.75,39.52,39.52,0,0,0-5.66,2.36c-1.43.83-3,1.5-4.44,2.35a16.18,16.18,0,0,0-2,1.37,8.79,8.79,0,0,0-1.57,1.71,23.94,23.94,0,0,0-7.5,5.9,29.6,29.6,0,0,0-2.35,3.12l.06.08a24.7,24.7,0,0,1-1.59,2.47,27.56,27.56,0,0,0-2,4.78c-.3.54-.18-.15-.64.83a10.61,10.61,0,0,1-.67,3.43c-.08.49-.15,1-.22,1.48a11.83,11.83,0,0,1,0,2.06l-.32.44A43.33,43.33,0,0,0,11.12,54a37.79,37.79,0,0,0,5.59,16.19,46.14,46.14,0,0,0,5.94,7.42,33.8,33.8,0,0,0,3.91,3.36c.72.49,1.44,1,2.22,1.45s1.55.89,2.36,1.28c.31.14,1.11.6,2,1.17.48.25,1,.55,1.52.78s1,.43,1.5.61,1.35.25,2,.37a35.29,35.29,0,0,0,7.61,1.59c2.52.28,4.89.3,6.73.4a27.57,27.57,0,0,0,6.2-.66c2-.45,3.79-1,5.6-1.59a32.35,32.35,0,0,0,9-4.85c3-2.14,5.45-4.64,7.36-6.28a8.32,8.32,0,0,0,1.12-1.32l.66-.94c.22-.32.41-.64.6-.91.43-.45.88-.9,1.28-1.39.7-1.15.61-2.17,1.2-3.33a42.43,42.43,0,0,0,3.94-12.59c.66-4.2.71-7.93,1.14-10.12.1.35.27,1.22.47,1.85s.35,1,.54.41c.24-.79.33-1.25.59-2a21.68,21.68,0,0,0,0-2.28c0-.65-.09-1.32-.14-2L92,40.39v-.28s0,.17.09.42l0-.5c-.11-.85-.17-1.67-.24-2.35a5.9,5.9,0,0,1,0-1.57c.06,0,.19.19.37.46a5.23,5.23,0,0,1,.8,1.32,1.22,1.22,0,0,0,.06.26,9.37,9.37,0,0,1,.82,2.35,26.3,26.3,0,0,1,.26,4.25l0,.08a12.19,12.19,0,0,1-.49,4.84.08.08,0,0,1,.07.06l0,.89V51l.12.12c-.05.1-.08.18-.11.25v.17a.11.11,0,0,0-.08,0,.16.16,0,0,1-.11.07,1.72,1.72,0,0,0-.15.67s0,.25.09.49l.07.48-.35,1.34c-.18.66-.39,1.32-.39,1.32.13-.7.35-2.4.47-3.86a5.78,5.78,0,0,1,.08-.74.78.78,0,0,0-.09-.24c-.2,1-.43,2-.68,3h0c-.31,1.27-.67,2.65-1.08,4.21A19.86,19.86,0,0,0,91.28,61c.08,0,.15.13.21.37.13-.38.31-1,.46-1.56s.29-1,.36-1.42l.14-.65a4.37,4.37,0,0,1,0,1.8Zm1.15-9.37-.09.39,0,0c0-.16,0-.3,0-.43ZM85.19,75.48Zm-1-9.1c-.91,1.8.34.33-.09,1.63a10.24,10.24,0,0,1,1.56-2.57c-.13-.1-1.4,1.66-.79.27C84.42,66.58,84,67.26,84.16,66.38Zm.68-.67.43-.92c-.2.4-.33.69-.43.92Zm-2.25,4.66c-.16.21-.33.41-.47.62a3.94,3.94,0,0,0-.62,1.07c.55-.85,1.38-1.39,1.54-2.3Zm-.69-.89-.1.25-.1.25a1.14,1.14,0,0,0,.16-.15l.35-.34.51-.51Zm-4,5.63A4.79,4.79,0,0,0,79,74.18c-.29.25-.53.43-.66.4s.14-.16.34-.42l.74-1c.27-.34.51-.71.7-1l.31-.44L79.4,73l-1.08,1.16c-.51.81-.61,1.05-.44,1Zm3.37-3,.08-.15.15-.34.22-.5s-.26.27-.6.73-.81,1-1.25,1.56c.63-.67,1.2-1.29,1.4-1.3ZM79,74.18c.29-.26.56-.53.83-.82ZM76.18,76.1l-.35.34.21.43c.66-.78.18-.68.14-.77ZM71.5,79.49l.8-.53.84-.58c-1.16.83-.48,0-.55-.14a19.38,19.38,0,0,0-2.69,2.05,6.22,6.22,0,0,0,1.6-.77Zm-2.19.42.81-.54a6.75,6.75,0,0,0,.79-.58l.36-.26a1.47,1.47,0,0,0-1.06.52c-.38.3-.78.73-1.27,1.06l.37-.23Zm-3.49,2.43-.79.14c-.21.15,0,.19-.39.49a8.75,8.75,0,0,0,2-.79s-.39.1-.78.17Z"/><text class="cls-3" transform="translate(11.01 57.36)">Sti<tspan class="cls-4" x="29.98" y="0">c</tspan><tspan class="cls-5" x="42.98" y="0">k</tspan><tspan x="55.63" y="0">er</tspan></text></g></svg>