<svg xmlns="http://www.w3.org/2000/svg" xmlns:xlink="http://www.w3.org/1999/xlink" viewBox="0 0 402 268"><defs><style>.cls-1{fill:url(#New_Gradient_Swatch_19);}.cls-2{fill:url(#linear-gradient);}.cls-3{fill:url(#New_Gradient_Swatch_19-2);}.cls-4{fill:url(#New_Gradient_Swatch_19-3);}.cls-5{fill:url(#New_Gradient_Swatch_19-4);}.cls-6{fill:url(#New_Gradient_Swatch_19-5);}.cls-7{fill:url(#New_Gradient_Swatch_19-6);}.cls-8{fill:url(#New_Gradient_Swatch_19-7);}</style><linearGradient id="New_Gradient_Swatch_19" x1="1.04" y1="135.75" x2="401.04" y2="135.75" gradientUnits="userSpaceOnUse"><stop offset="0" stop-color="#cacccd"/><stop offset="1" stop-color="#fff"/></linearGradient><linearGradient id="linear-gradient" x1="25.38" y1="132.94" x2="378.48" y2="132.94" gradientUnits="userSpaceOnUse"><stop offset="0" stop-color="#008ad0"/><stop offset="1" stop-color="#005a75"/></linearGradient><linearGradient id="New_Gradient_Swatch_19-2" x1="166.98" y1="190.37" x2="228.58" y2="190.37" xlink:href="#New_Gradient_Swatch_19"/><linearGradient id="New_Gradient_Swatch_19-3" x1="152.72" y1="174.89" x2="245.16" y2="174.89" xlink:href="#New_Gradient_Swatch_19"/><linearGradient id="New_Gradient_Swatch_19-4" x1="135.34" y1="152.69" x2="267.58" y2="152.69" xlink:href="#New_Gradient_Swatch_19"/><linearGradient id="New_Gradient_Swatch_19-5" x1="99.94" y1="118.28" x2="303" y2="118.28" xlink:href="#New_Gradient_Swatch_19"/><linearGradient id="New_Gradient_Swatch_19-6" x1="189.38" y1="220.93" x2="206.17" y2="220.93" xlink:href="#New_Gradient_Swatch_19"/><linearGradient id="New_Gradient_Swatch_19-7" x1="178.18" y1="204.9" x2="217.37" y2="204.9" xlink:href="#New_Gradient_Swatch_19"/></defs><g id="Wider"><path class="cls-1" d="M71,268.32c-16.22-4.11-31.47-15.54-43.47-27.77A91.87,91.87,0,0,1,1,175.79,92.8,92.8,0,0,1,59.49,89.85a.8.8,0,0,0,.51-.64A74.51,74.51,0,0,1,174.33,36.88a.82.82,0,0,0,1.08-.16A92.5,92.5,0,0,1,338.86,88a.8.8,0,0,0,.54.7,92.41,92.41,0,0,1-30.77,179.55S71.07,268.34,71,268.32Z"/><path class="cls-2" d="M93,242c-37.29-.71-67.63-31.64-67.63-69a69.16,69.16,0,0,1,55-67.53,4.3,4.3,0,0,0,3.41-4.58c-.12-1.45-.18-2.9-.18-4.3a51,51,0,0,1,93.6-28.14,3.51,3.51,0,0,0,2.93,1.68,3.43,3.43,0,0,0,3.18-2.33,69,69,0,0,1,133.25,25,70.33,70.33,0,0,1-.41,7.42,4.16,4.16,0,0,0,3.54,4.58A69,69,0,0,1,309.52,242H135.4C133.85,242,94.15,242,93,242Z"/><path class="cls-3" d="M167,194.21l5.6,6c13.91-14.95,36.47-14.95,50.39,0l5.61-6C211.58,175.93,184,175.93,167,194.21Z"/><path class="cls-4" d="M152.72,180.39l8.41,8.62a52.54,52.54,0,0,1,75.62,0l8.41-8.62A64.27,64.27,0,0,0,152.72,180.39Z"/><path class="cls-5" d="M135.34,160.61l12,12.41a74.84,74.84,0,0,1,108.19,0l12-12.41C231.1,123,171.89,123,135.34,160.61Z"/><path class="cls-6" d="M99.94,130.6l18.46,19.3c45.87-47.95,120.26-47.95,166.14,0L303,130.6C247,72,156.06,72,99.94,130.6Z"/><path class="cls-7" d="M189.38,218.29l8.4,9,8.39-9A11.27,11.27,0,0,0,189.38,218.29Z"/><path class="cls-8" d="M178.18,206.25l5.6,6a18.83,18.83,0,0,1,28,0l5.6-6A26.39,26.39,0,0,0,178.18,206.25Z"/></g></svg>