<svg id="Layer_1" data-name="Layer 1" xmlns="http://www.w3.org/2000/svg" viewBox="0 0 302 85"><defs><style>.cls-1{fill:#fff;}.cls-2{fill:#449bba;}</style></defs><path class="cls-1" d="M129.6,40.22a2.29,2.29,0,0,0-1.66-.7,2.25,2.25,0,0,0-1.65.7,2.65,2.65,0,0,0-.71,2,2.42,2.42,0,0,0,.71,1.89,2.37,2.37,0,0,0,1.65.65,2.35,2.35,0,0,0,2.38-2.54A2.61,2.61,0,0,0,129.6,40.22Zm0,0a2.29,2.29,0,0,0-1.66-.7,2.25,2.25,0,0,0-1.65.7,2.65,2.65,0,0,0-.71,2,2.42,2.42,0,0,0,.71,1.89,2.37,2.37,0,0,0,1.65.65,2.35,2.35,0,0,0,2.38-2.54A2.61,2.61,0,0,0,129.6,40.22Zm47.63-19.63a23.84,23.84,0,0,0-43.37-8.38c-8.38-3.75-17.23-3.23-22.64,2.18a16.39,16.39,0,0,0-4.59,11.25C95.94,27.46,88,34.88,88,43.75a15.57,15.57,0,0,0,3.56,9.77H190.1A18,18,0,0,0,196.63,40C196.63,30.33,188.28,22.31,177.23,20.59Zm-71.42,26.3a1.53,1.53,0,0,1-.73,1,10.11,10.11,0,0,1-2,.89,8.67,8.67,0,0,1-2.84.42,8.76,8.76,0,0,1-3.38-.6A7.08,7.08,0,0,1,94.48,47,6.78,6.78,0,0,1,93,44.74a7.45,7.45,0,0,1-.48-2.62A7.18,7.18,0,0,1,93,39.54a6.39,6.39,0,0,1,1.44-2.28,7.14,7.14,0,0,1,2.42-1.62,8.48,8.48,0,0,1,3.39-.62,8.82,8.82,0,0,1,2.57.33,6.84,6.84,0,0,1,1.75.77,1.39,1.39,0,0,1,.75,1,2.08,2.08,0,0,1-.36,1.3l-.52.81a1.56,1.56,0,0,1-1,.8,2.2,2.2,0,0,1-1.31-.28,2.94,2.94,0,0,0-.76-.2,5.06,5.06,0,0,0-.76-.06,2.81,2.81,0,0,0-1.21.24,2.14,2.14,0,0,0-.79.61,2.38,2.38,0,0,0-.44.83,2.92,2.92,0,0,0-.13.84,2.83,2.83,0,0,0,.15.86,2.43,2.43,0,0,0,.47.88,2.63,2.63,0,0,0,.85.68,2.75,2.75,0,0,0,1.28.28,3.53,3.53,0,0,0,1-.15,5.07,5.07,0,0,0,1-.41,2,2,0,0,1,1.36-.28,1.54,1.54,0,0,1,1,.89l.39.78A2.05,2.05,0,0,1,105.81,46.89Zm11,.44a1.89,1.89,0,0,1-.41,1.26,1.67,1.67,0,0,1-1.32.47,11.33,11.33,0,0,1-2-.19,4,4,0,0,1-1.76-.78,4.1,4.1,0,0,1-1.25-1.73,8.14,8.14,0,0,1-.47-3V31.8a1.51,1.51,0,0,1,1.73-1.7h2a1.5,1.5,0,0,1,1.7,1.7V43.14a2,2,0,0,0,.13.85.55.55,0,0,0,.42.3,1.32,1.32,0,0,1,.88.4,1.49,1.49,0,0,1,.33,1Zm18.36-2.21a6.66,6.66,0,0,1-1.68,2.21A7.7,7.7,0,0,1,131,48.74a9.24,9.24,0,0,1-3.07.5,9.34,9.34,0,0,1-3.08-.5,7.76,7.76,0,0,1-2.5-1.41,6.56,6.56,0,0,1-1.69-2.21,6.75,6.75,0,0,1-.61-2.92,6.89,6.89,0,0,1,.61-3A6.75,6.75,0,0,1,122.35,37a7.49,7.49,0,0,1,2.5-1.46,9.53,9.53,0,0,1,6.15,0A7.68,7.68,0,0,1,133.52,37a6.8,6.8,0,0,1,2.3,5.21A6.62,6.62,0,0,1,135.2,45.12Zm18.56,2.1a1.51,1.51,0,0,1-1.71,1.71h-1.8a1.75,1.75,0,0,1-1.26-.41,1.44,1.44,0,0,1-.42-1.09V47h0a3.61,3.61,0,0,1-.71,1.09,3.37,3.37,0,0,1-.93.68,3.72,3.72,0,0,1-1.1.35,6.75,6.75,0,0,1-1.19.11,6.85,6.85,0,0,1-1.8-.24,3.84,3.84,0,0,1-1.58-.81,4.17,4.17,0,0,1-1.1-1.54,6.37,6.37,0,0,1-.41-2.44V37a1.51,1.51,0,0,1,1.72-1.71h2A1.51,1.51,0,0,1,145.17,37v6a1.06,1.06,0,0,0,1.2,1.28,1.66,1.66,0,0,0,1-.26,1.81,1.81,0,0,0,.58-.7,3.44,3.44,0,0,0,.29-1,7.41,7.41,0,0,0,.07-1V37A1.52,1.52,0,0,1,150,35.33h2A1.51,1.51,0,0,1,153.76,37Zm19.06,0a1.51,1.51,0,0,1-1.7,1.71h-1.68a1.58,1.58,0,0,1-1.73-1.66h0a3.24,3.24,0,0,1-1.57,1.51,5.33,5.33,0,0,1-2.23.46,5.67,5.67,0,0,1-2.45-.52,5.87,5.87,0,0,1-1.93-1.47A7,7,0,0,1,158.26,45a9.72,9.72,0,0,1,0-5.75A6.37,6.37,0,0,1,159.5,37a5.64,5.64,0,0,1,2-1.47,6.59,6.59,0,0,1,2.69-.52,5.43,5.43,0,0,1,1.53.18,6.12,6.12,0,0,1,.95.39,2.1,2.1,0,0,1,.63.58h.05a.75.75,0,0,1,0-.21V31.8a1.51,1.51,0,0,1,1.72-1.7h2.05a1.5,1.5,0,0,1,1.7,1.7Zm-7.38-7.64a2,2,0,0,0-1.52.65,2.67,2.67,0,0,0-.63,1.91,2.92,2.92,0,0,0,.59,1.9,1.88,1.88,0,0,0,1.53.72,2,2,0,0,0,1.46-.63,2.58,2.58,0,0,0,.63-1.93,3.14,3.14,0,0,0-.53-1.88A1.79,1.79,0,0,0,165.44,39.58Zm-37.5-.06a2.25,2.25,0,0,0-1.65.7,2.65,2.65,0,0,0-.71,2,2.42,2.42,0,0,0,.71,1.89,2.37,2.37,0,0,0,1.65.65,2.35,2.35,0,0,0,2.38-2.54,2.61,2.61,0,0,0-.72-2A2.29,2.29,0,0,0,127.94,39.52Zm1.66.7a2.29,2.29,0,0,0-1.66-.7,2.25,2.25,0,0,0-1.65.7,2.65,2.65,0,0,0-.71,2,2.42,2.42,0,0,0,.71,1.89,2.37,2.37,0,0,0,1.65.65,2.35,2.35,0,0,0,2.38-2.54A2.61,2.61,0,0,0,129.6,40.22Zm0,0a2.29,2.29,0,0,0-1.66-.7,2.25,2.25,0,0,0-1.65.7,2.65,2.65,0,0,0-.71,2,2.42,2.42,0,0,0,.71,1.89,2.37,2.37,0,0,0,1.65.65,2.35,2.35,0,0,0,2.38-2.54A2.61,2.61,0,0,0,129.6,40.22Z"/><path class="cls-1" d="M2,50a1.48,1.48,0,0,1-.43-.64,1,1,0,0,1,.27-.88l.58-.84a1,1,0,0,1,.67-.48,1.44,1.44,0,0,1,.85.25l.59.39a4.66,4.66,0,0,0,.84.45,7.06,7.06,0,0,0,1.07.36,4.7,4.7,0,0,0,1.27.16,3.2,3.2,0,0,0,2-.59,1.86,1.86,0,0,0,.73-1.53,1.9,1.9,0,0,0-.64-1.47,6.68,6.68,0,0,0-1.61-1c-.64-.32-1.34-.63-2.08-1a12.57,12.57,0,0,1-2.08-1.12,6,6,0,0,1-1.61-1.61,4.21,4.21,0,0,1-.64-2.4,5,5,0,0,1,.48-2.22,5.17,5.17,0,0,1,1.32-1.71,5.92,5.92,0,0,1,2-1.08,7.63,7.63,0,0,1,2.48-.38,8.59,8.59,0,0,1,1.55.14,10.91,10.91,0,0,1,1.37.35,9.6,9.6,0,0,1,1.1.46,6.49,6.49,0,0,1,.77.46,1,1,0,0,1,.34,1.49l-.47.87c-.2.38-.42.57-.68.57a1.82,1.82,0,0,1-.82-.21c-.38-.22-.83-.45-1.34-.68A4.78,4.78,0,0,0,8,35.77a3.39,3.39,0,0,0-2.07.58,1.82,1.82,0,0,0-.75,1.52,1.79,1.79,0,0,0,.64,1.42,6.08,6.08,0,0,0,1.61,1c.64.3,1.34.6,2.08.91a11.2,11.2,0,0,1,2.08,1.11,5.91,5.91,0,0,1,1.61,1.62,4.32,4.32,0,0,1,.64,2.44,5.47,5.47,0,0,1-.42,2.13,5.2,5.2,0,0,1-1.2,1.76,5.64,5.64,0,0,1-1.93,1.17,7.19,7.19,0,0,1-2.6.44,8.9,8.9,0,0,1-1.89-.2,11.08,11.08,0,0,1-1.62-.48,10.56,10.56,0,0,1-1.3-.62A8.84,8.84,0,0,1,2,50Z"/><path class="cls-1" d="M17.75,34A1,1,0,0,1,18.88,33h1.65a1.21,1.21,0,0,1,1.23.89l3.33,8.3.32.89c.12.32.22.61.3.89l.32,1h0c.09-.32.18-.63.29-1s.19-.57.3-.89.22-.61.33-.89l3.32-8.3A1.23,1.23,0,0,1,31.58,33H33.2A1,1,0,0,1,34.33,34l1.33,16.42c.06.75-.29,1.12-1,1.12H33.44a1,1,0,0,1-1.13-1l-.7-9.35a7.27,7.27,0,0,1-.06-1v-1c0-.34,0-.66,0-1h0c-.12.36-.24.71-.34,1s-.22.62-.33,1-.22.63-.33.89L27.84,47.5a1.21,1.21,0,0,1-1.24.87H25.5a1.22,1.22,0,0,1-1.25-.87l-2.67-6.33c-.11-.26-.22-.57-.34-.91s-.24-.65-.34-.95-.24-.7-.34-1.05H20.5c0,.33,0,.66,0,1s0,.61,0,1,0,.66,0,1l-.71,9.35a1,1,0,0,1-1.13,1H17.47a.92.92,0,0,1-1-1.12Z"/><path class="cls-1" d="M43.44,33.86A1.21,1.21,0,0,1,44.67,33h1.68a1.17,1.17,0,0,1,1.23.89l5.81,16.45a.92.92,0,0,1,0,.91,1,1,0,0,1-.85.34H51.3a1.14,1.14,0,0,1-1.23-.89L48.76,46.8H42.24L41,50.65a1.15,1.15,0,0,1-1.23.91h-1.2a1,1,0,0,1-.85-.34.92.92,0,0,1,0-.91Zm4.48,10.19-1.65-5c-.09-.26-.18-.56-.26-.89s-.17-.64-.24-.94-.16-.68-.23-1.05h-.06c-.1.37-.19.72-.26,1.05s-.16.61-.23.94a7.53,7.53,0,0,1-.24.89l-1.68,5Z"/><path class="cls-1" d="M56,34.07A1,1,0,0,1,57,33h5a15,15,0,0,1,2.16.12,5.37,5.37,0,0,1,1.37.38,5,5,0,0,1,2.27,1.9,5.63,5.63,0,0,1,.85,3.18,6.2,6.2,0,0,1-.21,1.62,5.9,5.9,0,0,1-.6,1.46,5.27,5.27,0,0,1-1,1.19,4.23,4.23,0,0,1-1.31.81v0l.16.24.19.3a3.81,3.81,0,0,1,.25.43l3.07,5.6a.92.92,0,0,1,.11,1,1,1,0,0,1-.87.36H67.11a1.37,1.37,0,0,1-1.28-.76l-3.27-6.18H59.31v5.84a1,1,0,0,1-1.07,1.1H57c-.72,0-1.07-.36-1.07-1.1Zm6.39,7.62a2.87,2.87,0,0,0,2.14-.79,2.92,2.92,0,0,0,.79-2.18,3.4,3.4,0,0,0-.35-1.57,2.17,2.17,0,0,0-1.12-1,2.8,2.8,0,0,0-.8-.24,7.67,7.67,0,0,0-1.21-.08H59.31v5.84Z"/><path class="cls-1" d="M75.86,35.85h-5c-.74,0-1.1-.35-1.1-1.06v-.73A1,1,0,0,1,70.86,33H84.21a1,1,0,0,1,1.07,1.09v.73a.94.94,0,0,1-1.07,1.06h-5V50.46a1,1,0,0,1-1.1,1.1H76.93a1,1,0,0,1-1.07-1.1Z"/><path class="cls-1" d="M207.37,36.65h-5a1,1,0,0,1-1.1-1.07v-.72a1,1,0,0,1,1.1-1.09h13.36a1,1,0,0,1,1.07,1.09v.72a1,1,0,0,1-1.07,1.07h-5V51.26a1,1,0,0,1-1.1,1.1h-1.17a1,1,0,0,1-1.08-1.1Z"/><path class="cls-1" d="M218.89,34.87a1,1,0,0,1,1.08-1.1h1.18a1,1,0,0,1,1.09,1.1V45.65a3.76,3.76,0,0,0,1.12,2.91,4.26,4.26,0,0,0,3,1,4.32,4.32,0,0,0,3-1,3.72,3.72,0,0,0,1.12-2.91V34.87a1,1,0,0,1,1.08-1.1h1.2c.72,0,1.07.36,1.07,1.1V45.68a7.24,7.24,0,0,1-.53,2.85,6.33,6.33,0,0,1-1.52,2.2,6.85,6.85,0,0,1-2.36,1.43,9.43,9.43,0,0,1-6.12,0A6.76,6.76,0,0,1,221,50.73a6.2,6.2,0,0,1-1.52-2.2,7.24,7.24,0,0,1-.54-2.85Z"/><path class="cls-1" d="M242,36.65h-5a1,1,0,0,1-1.1-1.07v-.72a1,1,0,0,1,1.1-1.09h13.35a1,1,0,0,1,1.08,1.09v.72a1,1,0,0,1-1.08,1.07h-5V51.26a1,1,0,0,1-1.1,1.1h-1.18a1,1,0,0,1-1.07-1.1Z"/><path class="cls-1" d="M251.52,42.93a9.63,9.63,0,0,1,.71-3.72,9,9,0,0,1,2-3,9.17,9.17,0,0,1,3-2,10.52,10.52,0,0,1,7.75,0,9.22,9.22,0,0,1,3,2,9,9,0,0,1,2,3,9.81,9.81,0,0,1,.71,3.72,10.26,10.26,0,0,1-.71,3.82,9.19,9.19,0,0,1-5,5.18,10.52,10.52,0,0,1-7.75,0,9.21,9.21,0,0,1-5-5.18A10.06,10.06,0,0,1,251.52,42.93Zm3.48,0a7.31,7.31,0,0,0,.46,2.63,6.39,6.39,0,0,0,1.27,2.11,6,6,0,0,0,8.8,0,6.57,6.57,0,0,0,1.27-2.11,7.53,7.53,0,0,0,.46-2.63,7,7,0,0,0-.46-2.53,6.36,6.36,0,0,0-1.27-2A5.65,5.65,0,0,0,263.59,37a6.42,6.42,0,0,0-4.92,0,5.65,5.65,0,0,0-1.94,1.35,6.19,6.19,0,0,0-1.27,2A6.77,6.77,0,0,0,255,42.93Z"/><path class="cls-1" d="M273.93,34.87a1,1,0,0,1,1.08-1.1h5a16.75,16.75,0,0,1,2.16.11,5.77,5.77,0,0,1,1.38.38,5,5,0,0,1,2.26,1.9,5.67,5.67,0,0,1,.85,3.18,6.33,6.33,0,0,1-.2,1.63,5.5,5.5,0,0,1-.61,1.45,4.82,4.82,0,0,1-1,1.19,4.18,4.18,0,0,1-1.3.81v.06l.15.23a3.11,3.11,0,0,0,.2.3,4.05,4.05,0,0,1,.25.44l3.06,5.6a.89.89,0,0,1,.12.94.94.94,0,0,1-.88.37h-1.41a1.37,1.37,0,0,1-1.29-.76l-3.27-6.18h-3.25v5.84a1,1,0,0,1-1.07,1.1H275a1,1,0,0,1-1.08-1.1Zm6.39,7.62a2.92,2.92,0,0,0,2.15-.79,3,3,0,0,0,.79-2.19A3.27,3.27,0,0,0,282.9,38a2.12,2.12,0,0,0-1.11-1,3.43,3.43,0,0,0-.8-.23,6.75,6.75,0,0,0-1.22-.08h-2.49v5.84Z"/><path class="cls-1" d="M289.67,50.79a1.54,1.54,0,0,1-.43-.64,1,1,0,0,1,.27-.88l.58-.84a1,1,0,0,1,.67-.48,1.42,1.42,0,0,1,.85.24l.59.4A5.76,5.76,0,0,0,293,49a9.08,9.08,0,0,0,1.08.37,5.07,5.07,0,0,0,1.27.16,3.2,3.2,0,0,0,2-.59,2,2,0,0,0,.09-3,7.23,7.23,0,0,0-1.61-1c-.64-.31-1.34-.63-2.08-.94a12.22,12.22,0,0,1-2.08-1.13,5.74,5.74,0,0,1-1.61-1.61,4.15,4.15,0,0,1-.64-2.39,5,5,0,0,1,1.8-3.93,6.12,6.12,0,0,1,2-1.09,8.21,8.21,0,0,1,4-.23,9.28,9.28,0,0,1,1.36.35,7.59,7.59,0,0,1,1.1.46,5.55,5.55,0,0,1,.78.46,1,1,0,0,1,.34,1.49l-.47.86c-.2.39-.42.58-.68.58a1.82,1.82,0,0,1-.82-.21,12.06,12.06,0,0,0-1.35-.68,4.53,4.53,0,0,0-1.87-.34,3.39,3.39,0,0,0-2.07.57,1.84,1.84,0,0,0-.76,1.52,1.81,1.81,0,0,0,.65,1.43,6.35,6.35,0,0,0,1.61,1c.64.3,1.34.6,2.08.9a12.53,12.53,0,0,1,2.08,1.11,5.81,5.81,0,0,1,1.61,1.63,4.29,4.29,0,0,1,.64,2.43,5.52,5.52,0,0,1-.42,2.14,5.16,5.16,0,0,1-1.2,1.75A5.75,5.75,0,0,1,298,52.24a7.23,7.23,0,0,1-2.6.43,8.84,8.84,0,0,1-1.89-.19,12.43,12.43,0,0,1-1.62-.49,10.59,10.59,0,0,1-1.3-.61C290.2,51.16,289.9,51,289.67,50.79Z"/><path class="cls-1" d="M151.34,48.57a3.07,3.07,0,0,1-.17.31l.38,0Z"/><path class="cls-2" d="M155.9,57.56V77.4h-3V57.56Z"/><path class="cls-2" d="M160.11,64.88H163V66a4.74,4.74,0,0,1,3.42-1.5,4.29,4.29,0,0,1,3.4,1.37,5.64,5.64,0,0,1,1.06,3.82V77.4H168v-7a4.63,4.63,0,0,0-.51-2.56,2.09,2.09,0,0,0-1.83-.72,2.23,2.23,0,0,0-2,1,6.5,6.5,0,0,0-.59,3.28v6h-2.91Z"/><path class="cls-2" d="M177.53,67.58V77.4h-2.89V67.58H173.4v-2.7h1.24V60.29h2.89v4.59h2.25v2.7Z"/><path class="cls-2" d="M193.38,71.82h-9a3.78,3.78,0,0,0,1,2.46,3.05,3.05,0,0,0,2.27.9,3,3,0,0,0,1.79-.51,7.46,7.46,0,0,0,1.58-1.91l2.44,1.37a9.47,9.47,0,0,1-1.19,1.65A6.44,6.44,0,0,1,191,76.91a5.66,5.66,0,0,1-1.56.65,7.9,7.9,0,0,1-1.81.2,5.89,5.89,0,0,1-4.5-1.8,6.73,6.73,0,0,1-1.69-4.8A6.92,6.92,0,0,1,183,66.35a5.67,5.67,0,0,1,4.4-1.81,5.6,5.6,0,0,1,4.37,1.76,6.92,6.92,0,0,1,1.59,4.84Zm-3-2.36a2.77,2.77,0,0,0-2.92-2.31,2.94,2.94,0,0,0-1,.16,2.65,2.65,0,0,0-.84.46,2.86,2.86,0,0,0-.65.73,3.2,3.2,0,0,0-.41,1Z"/><path class="cls-2" d="M196.54,64.88h2.89V66a5.32,5.32,0,0,1,1.42-1.14,3.15,3.15,0,0,1,1.49-.32,4.73,4.73,0,0,1,2.39.74l-1.33,2.65a2.76,2.76,0,0,0-1.6-.59q-2.37,0-2.37,3.57V77.4h-2.89Z"/><path class="cls-2" d="M206.79,64.88h2.9V66a4.74,4.74,0,0,1,3.42-1.5,4.32,4.32,0,0,1,3.41,1.37,5.65,5.65,0,0,1,1,3.82V77.4h-2.9v-7a4.62,4.62,0,0,0-.52-2.56,2.06,2.06,0,0,0-1.82-.72,2.25,2.25,0,0,0-2.05,1,6.62,6.62,0,0,0-.59,3.28v6h-2.9Z"/><path class="cls-2" d="M230.45,64.88h2.9V77.4h-2.9V76.09a5.57,5.57,0,0,1-8.14-.2,7,7,0,0,1-1.68-4.78,6.79,6.79,0,0,1,1.68-4.7,5.44,5.44,0,0,1,4.22-1.87,5.32,5.32,0,0,1,3.92,1.8Zm-6.86,6.23a4.4,4.4,0,0,0,1,2.93A3.16,3.16,0,0,0,227,75.18a3.32,3.32,0,0,0,2.6-1.11,4.27,4.27,0,0,0,1-2.9,4.31,4.31,0,0,0-1-2.91,3.29,3.29,0,0,0-2.57-1.11,3.15,3.15,0,0,0-2.49,1.13A4.16,4.16,0,0,0,223.59,71.11Z"/><path class="cls-2" d="M240,67.58V77.4H237.1V67.58h-1.24v-2.7h1.24V60.29H240v4.59h2.25v2.7Z"/><path class="cls-2" d="M243.77,59.68a1.76,1.76,0,0,1,.55-1.31,1.86,1.86,0,0,1,2.66,0,1.77,1.77,0,0,1,.55,1.32A1.83,1.83,0,0,1,247,61a1.77,1.77,0,0,1-1.32.55,1.81,1.81,0,0,1-1.34-.55A1.83,1.83,0,0,1,243.77,59.68Zm3.33,5.2V77.4h-2.9V64.88Z"/><path class="cls-2" d="M250.17,71.05a6.2,6.2,0,0,1,1.94-4.61,6.86,6.86,0,0,1,9.49,0,6.4,6.4,0,0,1,1.92,4.71,6.3,6.3,0,0,1-1.94,4.71,6.62,6.62,0,0,1-4.79,1.89,6.35,6.35,0,0,1-4.72-1.93A6.46,6.46,0,0,1,250.17,71.05Zm3,.06a4.18,4.18,0,0,0,1,3,3.89,3.89,0,0,0,5.42,0,4.69,4.69,0,0,0,0-5.84,3.86,3.86,0,0,0-5.4,0A4.06,4.06,0,0,0,253.12,71.11Z"/><path class="cls-2" d="M266.58,64.88h2.91V66a4.74,4.74,0,0,1,3.42-1.5,4.29,4.29,0,0,1,3.4,1.37,5.59,5.59,0,0,1,1.06,3.82V77.4h-2.91v-7a4.63,4.63,0,0,0-.51-2.56,2.08,2.08,0,0,0-1.83-.72,2.23,2.23,0,0,0-2,1,6.62,6.62,0,0,0-.59,3.28v6h-2.91Z"/><path class="cls-2" d="M290.25,64.88h2.9V77.4h-2.9V76.09a5.57,5.57,0,0,1-8.14-.2,7,7,0,0,1-1.68-4.78,6.79,6.79,0,0,1,1.68-4.7,5.43,5.43,0,0,1,4.22-1.87,5.34,5.34,0,0,1,3.92,1.8Zm-6.87,6.23a4.35,4.35,0,0,0,1,2.93,3.16,3.16,0,0,0,2.49,1.14,3.32,3.32,0,0,0,2.6-1.11,4.27,4.27,0,0,0,1-2.9,4.31,4.31,0,0,0-1-2.91,3.29,3.29,0,0,0-2.57-1.11,3.18,3.18,0,0,0-2.5,1.13A4.16,4.16,0,0,0,283.38,71.11Z"/><path class="cls-2" d="M299.7,55.69V77.4h-2.9V55.69Z"/></svg>